<svg width="20" height="20" viewBox="0 0 20 20" fill="none" xmlns="http://www.w3.org/2000/svg">
<path d="M19.7202 17.1847L14.9317 12.2378C14.5883 11.8829 14.1592 11.7408 13.9732 11.9223C13.7867 12.1024 13.3572 11.9607 13.0138 11.6058L12.9454 11.5348C15.0885 8.71604 14.8805 4.68028 12.3069 2.10668C9.49809 -0.702146 4.94391 -0.702146 2.13544 2.10668C-0.673391 4.91551 -0.673391 9.46904 2.13544 12.2779C4.75287 14.8957 8.88401 15.071 11.7085 12.8101L11.7386 12.8414C12.0813 13.1963 12.209 13.6299 12.0218 13.8104C11.8355 13.9909 11.9623 14.4248 12.306 14.7791L17.0919 19.7279C17.4352 20.0819 18.001 20.0924 18.3563 19.7487L19.6994 18.4491C20.0533 18.1063 20.0629 17.5409 19.7202 17.1847ZM10.7264 10.6972C8.79346 12.6304 5.64802 12.6304 3.71539 10.6979C1.78247 8.76494 1.78277 5.61915 3.71539 3.68658C5.64802 1.75366 8.79346 1.75395 10.7257 3.68687C12.6589 5.6195 12.6589 8.76464 10.7264 10.6972Z" fill="#F5F5F5"/>
</svg>
