<svg width="6" height="8" viewBox="0 0 6 8" fill="none" xmlns="http://www.w3.org/2000/svg">
<path d="M5.80876 6.42311C5.60356 6.32711 5.51556 6.19956 5.52396 6.00978C5.53276 5.78756 5.42236 5.62489 5.36996 5.56089C5.40156 5.42222 5.49396 4.94489 5.36996 4.52978C5.23636 4.08578 4.82916 3.40756 4.40876 2.74089C4.23676 2.46711 4.22875 2.16978 4.21916 1.82533C4.21036 1.49644 4.19996 1.12356 4.03916 0.709778C3.86476 0.258667 3.51476 0 3.07836 0C2.81696 0.000557715 2.56186 0.0892008 2.34676 0.254222C1.92676 0.584889 1.98276 1.30578 2.01916 1.78311C2.02436 1.84844 2.02876 1.91022 2.03156 1.96267C2.05596 2.43022 2.03396 2.67644 2.00476 2.75111C1.98596 2.8 1.89316 2.93911 1.79516 3.08667C1.69356 3.23911 1.57876 3.412 1.48436 3.57289C1.37196 3.76667 1.28116 4.06311 1.19316 4.34933C1.12916 4.55867 1.06836 4.75689 1.00916 4.87511C0.897155 5.10267 0.925155 5.31511 0.948355 5.41289C0.905955 5.44667 0.844755 5.51289 0.793155 5.63733C0.730755 5.78933 0.603955 5.87111 0.340355 5.92933C0.219155 5.95733 0.135555 6.01556 0.0919553 6.10178C0.0279553 6.22756 0.0627553 6.38533 0.0943553 6.49333C0.141155 6.652 0.111955 6.75244 0.0591553 6.93467C0.0471553 6.97689 0.0331553 7.02444 0.0191553 7.07689C0.00790177 7.11386 0.00421664 7.15315 0.00836866 7.1919C0.0125207 7.23066 0.0244052 7.26789 0.0431553 7.30089C0.142355 7.47467 0.432755 7.536 0.731955 7.57645C0.910755 7.60044 1.10596 7.68178 1.29516 7.76089C1.48036 7.83778 1.67196 7.91778 1.84596 7.94222C1.87236 7.94578 1.89836 7.94756 1.92396 7.94756C2.18676 7.94756 2.30556 7.74889 2.34316 7.66711C2.59201 7.60962 2.84476 7.57542 3.09876 7.56489C3.35142 7.56131 3.60358 7.591 3.84996 7.65333C3.87876 7.71644 3.95476 7.86045 4.07636 7.93467C4.14276 7.976 4.23556 8 4.33076 8C4.43236 8 4.62556 7.97244 4.77836 7.78889C4.93036 7.60489 5.31156 7.36933 5.58996 7.19778C5.65196 7.15911 5.70996 7.12356 5.76076 7.09111C5.91676 6.992 6.00236 6.85111 5.99476 6.70356C5.99072 6.64225 5.9712 6.58346 5.93844 6.53393C5.90568 6.48439 5.86101 6.44614 5.80956 6.42356L5.80876 6.42311ZM2.34996 6.38756C2.33036 6.23156 2.15396 6.07644 1.94996 5.89689C1.78316 5.75022 1.59396 5.58356 1.54196 5.44267C1.43396 5.152 1.51916 4.64089 1.66716 4.37778C1.74036 4.24622 1.79996 4.04622 1.85796 3.85333C1.92036 3.64444 1.98476 3.42844 2.05676 3.33422C2.17116 3.18667 2.27676 2.89956 2.29556 2.67378C2.40236 2.79022 2.56836 2.93822 2.72196 2.93822C2.74496 2.93823 2.76785 2.93464 2.78996 2.92756C2.89516 2.89289 3.04956 2.79111 3.19876 2.69289C3.32756 2.608 3.48596 2.50356 3.54596 2.49378C3.64836 2.66178 4.24316 4.16356 4.30396 4.64578C4.33812 4.91913 4.32851 5.19704 4.27556 5.46667C4.2521 5.46294 4.22845 5.46101 4.20476 5.46089C4.03916 5.46089 3.99516 5.564 3.98396 5.62533C3.95436 5.78533 3.95116 6.29733 3.95116 6.41244C3.89116 6.49911 3.58796 6.90844 3.15316 6.98178C2.97596 7.01111 2.81036 7.02622 2.66116 7.02622C2.53396 7.02622 2.45276 7.01467 2.41876 7.00889L2.20036 6.72356C2.28636 6.67511 2.37236 6.57244 2.34996 6.388V6.38756ZM2.62716 1.68267C2.62039 1.68598 2.61372 1.68954 2.60716 1.69333C2.60652 1.67622 2.60505 1.65916 2.60276 1.64222C2.57876 1.48533 2.48756 1.37156 2.38596 1.37156C2.37818 1.37162 2.37042 1.37237 2.36276 1.37378C2.30236 1.38533 2.25476 1.43689 2.22876 1.51067C2.25156 1.34933 2.33156 1.23022 2.42676 1.23022C2.53796 1.23022 2.63236 1.40133 2.63236 1.60444C2.63236 1.62978 2.63076 1.65556 2.62716 1.68267ZM3.49356 1.80356C3.50417 1.76495 3.50957 1.72481 3.50956 1.68444C3.50956 1.50044 3.40716 1.35644 3.27636 1.35644C3.14876 1.35644 3.04516 1.50356 3.04516 1.68444C3.04516 1.69689 3.04516 1.70933 3.04636 1.72178C3.0397 1.7188 3.03303 1.71583 3.02636 1.71289C3.01184 1.66201 3.00456 1.60893 3.00476 1.55556C3.00476 1.33556 3.12796 1.15644 3.27916 1.15644C3.43116 1.15644 3.55396 1.33556 3.55396 1.55556C3.55396 1.64711 3.53196 1.73467 3.49396 1.804L3.49356 1.80356ZM3.38156 2.23156C3.37956 2.24267 3.37516 2.24756 3.32356 2.27822C3.29009 2.29763 3.25727 2.31839 3.22516 2.34044L3.19836 2.35956C3.08956 2.43422 2.83556 2.61022 2.76676 2.62044C2.71996 2.62756 2.69076 2.60711 2.62596 2.55644C2.61037 2.54435 2.59464 2.53249 2.57876 2.52089C2.46156 2.43289 2.38596 2.336 2.37756 2.29822C2.41556 2.26444 2.51076 2.18 2.55916 2.12978C2.65796 2.02533 2.75716 1.95511 2.80596 1.95511L2.81356 1.95556C2.87116 1.96756 3.01356 2.032 3.11756 2.07956C3.16556 2.10133 3.20716 2.12044 3.23636 2.132C3.32836 2.16844 3.37636 2.21422 3.38196 2.23156H3.38156ZM4.20876 7.12C4.26076 6.85333 4.32036 6.48978 4.31076 6.27556C4.30836 6.22667 4.30476 6.17378 4.30116 6.12267C4.29436 6.02711 4.28396 5.88489 4.29436 5.84267C4.29667 5.8414 4.29908 5.84036 4.30156 5.83956C4.30156 5.96222 4.32556 6.20622 4.49636 6.29156C4.54756 6.31689 4.60556 6.32978 4.66956 6.32978C4.84116 6.32978 5.03116 6.23378 5.10956 6.14489C5.15224 6.09408 5.18955 6.03801 5.22076 5.97778C5.22796 6.00318 5.23068 6.02989 5.22876 6.05644C5.21836 6.23689 5.29516 6.47644 5.44156 6.56489L5.46276 6.57778C5.51476 6.60889 5.65356 6.692 5.65556 6.73111C5.65556 6.73111 5.65436 6.73556 5.64676 6.74444C5.61196 6.78 5.48996 6.85111 5.37196 6.92C5.16236 7.04222 4.92516 7.18044 4.81836 7.30844C4.66836 7.48889 4.49836 7.60978 4.39596 7.60978C4.38457 7.60998 4.37323 7.60818 4.36236 7.60444C4.25116 7.56444 4.15956 7.38133 4.20876 7.12ZM0.412755 6.43867C0.401555 6.37822 0.392755 6.33022 0.402355 6.284C0.409155 6.24933 0.558355 6.21289 0.621555 6.19689C0.710755 6.17467 0.803155 6.152 0.863555 6.11022C0.945155 6.05378 0.989155 5.94978 1.02836 5.85778C1.05636 5.79111 1.08556 5.72267 1.12036 5.70044C1.1236 5.69824 1.12736 5.69716 1.13116 5.69733C1.19596 5.69733 1.33236 5.85333 1.41116 5.99289C1.43116 6.02844 1.46796 6.09867 1.51036 6.18C1.63836 6.42444 1.81316 6.75778 1.90436 6.87022C1.98676 6.97067 2.12036 7.164 2.08716 7.33022C2.06316 7.45911 1.93556 7.56356 1.90556 7.58667C1.89228 7.58982 1.87873 7.59131 1.86516 7.59111C1.68996 7.59111 1.34396 7.42489 1.15796 7.336L1.13076 7.32267C1.02676 7.27289 0.857155 7.24178 0.693155 7.21156C0.562755 7.18711 0.384355 7.15422 0.354755 7.12444C0.330755 7.09378 0.358755 6.99378 0.382755 6.90578C0.400755 6.84267 0.418755 6.77689 0.428755 6.70844C0.438667 6.6182 0.43324 6.52669 0.412755 6.43867Z" fill="white"/>
</svg>
