<svg width="6" height="8" viewBox="0 0 6 8" fill="none" xmlns="http://www.w3.org/2000/svg">
<path d="M4.3476 0H4.3984C4.4392 0.56 4.2468 0.978667 4.0132 1.28178C3.7836 1.58267 3.4696 1.87467 2.9616 1.83022C2.928 1.27822 3.1204 0.890667 3.3536 0.588444C3.5708 0.306667 3.9676 0.056 4.348 0H4.3476ZM5.85 5.86489V5.88089C5.71221 6.34224 5.51059 6.77693 5.2524 7.16933C5.0244 7.52 4.7456 7.99156 4.2472 7.99156C3.8164 7.99156 3.5304 7.68222 3.0888 7.67378C2.622 7.66489 2.3648 7.93289 1.938 8H1.7924C1.4792 7.94933 1.226 7.67111 1.0416 7.42133C0.426494 6.59508 0.0619576 5.57408 0 4.504L0 4.14489C0.0332 3.26978 0.4132 2.55822 0.918 2.21378C1.1848 2.03022 1.5512 1.87422 1.9592 1.944C2.134 1.97422 2.3128 2.04133 2.4692 2.10756C2.6176 2.17156 2.8032 2.28444 2.9792 2.27867C3.0984 2.27467 3.2168 2.20533 3.3368 2.15644C3.6888 2.01422 4.0328 1.85111 4.4876 1.928C5.0336 2.02 5.4212 2.29156 5.6608 2.71022C5.1988 3.03911 4.8336 3.53467 4.896 4.38133C4.9512 5.15022 5.3508 5.6 5.85 5.86489Z" fill="white"/>
</svg>
