<svg width="10" height="8" viewBox="0 0 10 8" fill="none" xmlns="http://www.w3.org/2000/svg">
<path fill-rule="evenodd" clip-rule="evenodd" d="M3.80952 0H6.19048C7.20082 0 8.16979 0.421427 8.88422 1.17157C9.59864 1.92172 10 2.93913 10 4C10 5.06087 9.59864 6.07828 8.88422 6.82843C8.16979 7.57857 7.20082 8 6.19048 8H3.80952C2.79918 8 1.83021 7.57857 1.11578 6.82843C0.401359 6.07828 0 5.06087 0 4C0 2.93913 0.401359 1.92172 1.11578 1.17157C1.83021 0.421427 2.79918 0 3.80952 0V0ZM3.74524 0.9675C2.97927 0.9675 2.24467 1.28699 1.70305 1.8557C1.16142 2.4244 0.857143 3.19573 0.857143 4C0.857143 4.80427 1.16142 5.5756 1.70305 6.1443C2.24467 6.71301 2.97927 7.0325 3.74524 7.0325H6.18333C6.9493 7.0325 7.6839 6.71301 8.22553 6.1443C8.76715 5.5756 9.07143 4.80427 9.07143 4C9.07143 3.19573 8.76715 2.4244 8.22553 1.8557C7.6839 1.28699 6.9493 0.9675 6.18333 0.9675H3.74524ZM3.1119 2.1195H4.25524L5.77857 4.707V2.12H6.89571V5.8675H5.8L4.22095 3.2685V5.869H3.10952L3.1119 2.1195Z" fill="white"/>
</svg>
