<svg width="10" height="8" viewBox="0 0 10 8" fill="none" xmlns="http://www.w3.org/2000/svg">
<path d="M5.29131 8L3.8094 7.327V0C3.8094 0 7.03036 0.5735 7.47369 1.9935C7.91702 3.4145 7.22607 4.3345 6.98321 4.3615C6.30702 4.4365 6.04988 3.9875 6.04988 3.9875V1.695L5.31464 1.371L5.29131 8ZM5.71417 7.16V8C5.71417 8 9.36464 6.831 9.90179 6.38C10.4389 5.93 8.64417 4.809 7.67988 5.028C7.67988 5.028 6.65512 5.0775 5.72655 5.4785C5.7175 5.4825 5.72655 6.2335 5.72655 6.2335L8.08274 5.686L8.91274 6.051L5.71417 7.16ZM3.32179 6.7735C3.32179 6.7735 2.87321 7.0115 1.87369 6.9995C0.87369 6.9875 -0.011548 6.702 -0.00011943 6.083C0.0113091 5.464 1.65512 4.7855 3.31036 4.5V5.369L1.55179 5.845C1.55179 5.845 1.25083 6.238 1.65512 6.25C2.22214 6.26268 2.78777 6.18617 3.33321 6.023L3.32179 6.773V6.7735Z" fill="white"/>
</svg>
