<svg width="7" height="8" viewBox="0 0 7 8" fill="none" xmlns="http://www.w3.org/2000/svg">
<path d="M1.55925 0.6785L1.54963 0.6885C1.56975 0.6645 1.59775 0.6385 1.617 0.6245C2.16475 0.2175 2.79825 0 3.5 0C4.15713 0 4.77225 0.2075 5.29813 0.568C5.33575 0.594 5.43988 0.6755 5.49325 0.7495C4.9875 0.111 3.49694 1.481 3.49694 1.481C2.982 1.027 2.50819 0.718 2.15513 0.608C1.86025 0.5155 1.65638 0.593 1.55925 0.6785ZM6.06769 1.2825C6.05238 1.2625 6.03531 1.2445 6.02 1.2245C5.89181 1.0635 5.73431 1.0245 5.59213 1.0355C5.46306 1.0815 4.86588 1.3275 4.13 2.1215C4.13 2.1215 4.95863 3.042 5.46569 3.983C5.97275 4.9245 6.27594 5.664 6.08956 6.6905C6.67653 5.95497 7.00132 4.99498 7 3.9995C7.00124 2.99173 6.66825 2.02087 6.06813 1.2825H6.06769ZM4.80375 4.385C4.48081 3.97284 4.14714 3.57183 3.80319 3.1825C3.70204 3.06709 3.59995 2.95275 3.49694 2.8395L3.12594 3.2665C2.85731 3.5765 2.50863 3.9815 2.31525 4.2175C1.97094 4.6375 0.983939 5.957 0.928377 6.6965C0.928377 6.6965 0.708752 6.1095 1.19088 4.7565C1.50588 3.872 2.45656 2.544 2.85381 2.1115C2.85381 2.1115 2.49069 1.655 2.03569 1.3395L2.03263 1.3385C2.03263 1.3385 2.02781 1.334 2.0195 1.3285C1.80075 1.1785 1.56144 1.0635 1.33131 1.0485C1.18467 1.06482 1.04818 1.14139 0.947189 1.264C0.329777 2.04571 0.00700409 3.07415 0.0489137 4.12614C0.0908233 5.17812 0.494034 6.16878 1.17105 6.88314C1.84806 7.5975 2.74426 7.97792 3.66516 7.94186C4.58606 7.90579 5.45736 7.45615 6.09 6.6905C6.09 6.6895 6.01606 6.1625 5.54531 5.4055C5.43463 5.2285 5.02994 4.6755 4.80331 4.3855L4.80375 4.385Z" fill="white"/>
</svg>
